<svg width="28" height="27" viewBox="0 0 28 27" fill="none" xmlns="http://www.w3.org/2000/svg">
<path d="M13.3666 1.06C13.4251 0.941949 13.5153 0.842577 13.6272 0.773101C13.7392 0.703625 13.8683 0.666809 14 0.666809C14.1317 0.666809 14.2608 0.703625 14.3727 0.773101C14.4846 0.842577 14.5749 0.941949 14.6333 1.06L17.7133 7.29867C17.9162 7.70929 18.2157 8.06455 18.5861 8.33394C18.9566 8.60333 19.3868 8.77882 19.84 8.84533L26.728 9.85333C26.8585 9.87224 26.9811 9.9273 27.082 10.0123C27.1828 10.0972 27.2579 10.2087 27.2987 10.3341C27.3395 10.4596 27.3443 10.5939 27.3128 10.7219C27.2812 10.85 27.2144 10.9666 27.12 11.0587L22.1386 15.9093C21.8101 16.2295 21.5643 16.6246 21.4224 17.0608C21.2805 17.497 21.2467 17.9612 21.324 18.4133L22.5 25.2667C22.523 25.3971 22.5089 25.5314 22.4593 25.6542C22.4097 25.7771 22.3266 25.8835 22.2194 25.9613C22.1122 26.0392 21.9853 26.0853 21.8531 26.0945C21.721 26.1037 21.5889 26.0756 21.472 26.0133L15.3146 22.776C14.9089 22.563 14.4576 22.4517 13.9993 22.4517C13.5411 22.4517 13.0897 22.563 12.684 22.776L6.52798 26.0133C6.41109 26.0752 6.27917 26.1031 6.14725 26.0937C6.01532 26.0843 5.88867 26.0381 5.78171 25.9603C5.67474 25.8825 5.59176 25.7763 5.54219 25.6536C5.49262 25.531 5.47846 25.3969 5.50131 25.2667L6.67598 18.4147C6.75357 17.9623 6.71996 17.4979 6.57803 17.0614C6.4361 16.6249 6.19012 16.2295 5.86131 15.9093L0.879979 11.06C0.78477 10.968 0.717303 10.8512 0.685262 10.7228C0.653221 10.5943 0.657894 10.4595 0.69875 10.3336C0.739606 10.2077 0.815001 10.0958 0.916348 10.0106C1.01769 9.9255 1.14092 9.87053 1.27198 9.852L8.15865 8.84533C8.61232 8.77933 9.04316 8.60408 9.41409 8.33465C9.78502 8.06522 10.0849 7.7097 10.288 7.29867L13.3666 1.06Z" fill="#F9D401"/>
</svg>
